<svg width="14" height="15" viewBox="0 0 14 15" fill="none" xmlns="http://www.w3.org/2000/svg">
<path d="M1.99134 6.76761C1.64406 6.63256 1.47042 6.56503 1.41972 6.46773C1.37577 6.38338 1.37571 6.2829 1.41956 6.1985C1.47014 6.10114 1.64371 6.03341 1.99083 5.89794L11.842 2.05358C12.1554 1.93129 12.3121 1.87015 12.4122 1.90359C12.4991 1.93264 12.5673 2.00087 12.5964 2.08782C12.6298 2.18793 12.5687 2.34461 12.4464 2.65797L8.60204 12.5092C8.46658 12.8563 8.39885 13.0298 8.30149 13.0804C8.21708 13.1243 8.1166 13.1242 8.03226 13.0803C7.93495 13.0296 7.86743 12.8559 7.73237 12.5086L6.19931 8.56647C6.17189 8.49598 6.15818 8.46073 6.13701 8.43105C6.11825 8.40474 6.09524 8.38174 6.06894 8.36297C6.03925 8.3418 6.00401 8.32809 5.93351 8.30068L1.99134 6.76761Z" stroke="#1E3AC7" stroke-width="1.17" stroke-linecap="round" stroke-linejoin="round"/>
</svg>
