<svg width="34" height="34" viewBox="0 0 34 34" fill="none" xmlns="http://www.w3.org/2000/svg">
<circle cx="17.1183" cy="16.7472" r="16.7472" fill="#2F61AE"/>
<path fill-rule="evenodd" clip-rule="evenodd" d="M13.6675 8.42402C14.5604 8.38291 14.8451 8.37378 17.1197 8.37378C19.3943 8.37378 19.679 8.38368 20.5711 8.42402C21.4633 8.46437 22.0723 8.60672 22.6052 8.81301C23.1632 9.02388 23.6694 9.35349 24.0881 9.77978C24.5143 10.1977 24.8432 10.7032 25.0533 11.2619C25.2604 11.7948 25.4019 12.4038 25.4431 13.2944C25.4842 14.1889 25.4933 14.4736 25.4933 16.7474C25.4933 19.022 25.4834 19.3067 25.4431 20.1996C25.4027 21.0902 25.2604 21.6992 25.0533 22.2321C24.8432 22.7909 24.5138 23.2972 24.0881 23.7157C23.6694 24.142 23.1632 24.4709 22.6052 24.681C22.0723 24.888 21.4633 25.0296 20.5727 25.0707C19.679 25.1118 19.3943 25.121 17.1197 25.121C14.8451 25.121 14.5604 25.1111 13.6675 25.0707C12.7768 25.0304 12.1679 24.888 11.635 24.681C11.0762 24.4709 10.5699 24.1415 10.1513 23.7157C9.72533 23.2976 9.39567 22.7915 9.18533 22.2329C8.97903 21.7 8.83744 21.091 8.79634 20.2003C8.75523 19.3059 8.74609 19.0212 8.74609 16.7474C8.74609 14.4728 8.75599 14.1881 8.79634 13.2959C8.83668 12.4038 8.97903 11.7948 9.18533 11.2619C9.39598 10.7032 9.7259 10.1972 10.1521 9.77902C10.57 9.35311 11.0758 9.02345 11.6342 8.81301C12.1671 8.60672 12.7761 8.46513 13.6667 8.42402H13.6675ZM20.5034 9.93127C19.6204 9.89092 19.3554 9.88255 17.1197 9.88255C14.8839 9.88255 14.619 9.89092 13.736 9.93127C12.9192 9.96857 12.4762 10.1048 12.1808 10.2198C11.7903 10.372 11.5109 10.5524 11.2178 10.8455C10.94 11.1158 10.7262 11.4448 10.5921 11.8085C10.4771 12.1038 10.3409 12.5469 10.3036 13.3637C10.2632 14.2467 10.2549 14.5116 10.2549 16.7474C10.2549 18.9831 10.2632 19.248 10.3036 20.1311C10.3409 20.9479 10.4771 21.3909 10.5921 21.6863C10.7261 22.0494 10.94 22.379 11.2178 22.6492C11.4881 22.9271 11.8177 23.141 12.1808 23.275C12.4762 23.3899 12.9192 23.5262 13.736 23.5635C14.619 23.6038 14.8832 23.6122 17.1197 23.6122C19.3562 23.6122 19.6204 23.6038 20.5034 23.5635C21.3202 23.5262 21.7632 23.3899 22.0586 23.275C22.4491 23.1227 22.7285 22.9423 23.0216 22.6492C23.2994 22.379 23.5133 22.0494 23.6473 21.6863C23.7622 21.3909 23.8985 20.9479 23.9358 20.1311C23.9762 19.248 23.9845 18.9831 23.9845 16.7474C23.9845 14.5116 23.9762 14.2467 23.9358 13.3637C23.8985 12.5469 23.7622 12.1038 23.6473 11.8085C23.4951 11.418 23.3146 11.1386 23.0216 10.8455C22.7513 10.5677 22.4222 10.3539 22.0586 10.2198C21.7632 10.1048 21.3202 9.96857 20.5034 9.93127ZM16.0502 19.3287C16.6475 19.5774 17.3126 19.6109 17.9319 19.4237C18.5512 19.2364 19.0863 18.84 19.4457 18.302C19.8052 17.7641 19.9668 17.118 19.9028 16.4742C19.8389 15.8303 19.5534 15.2287 19.0951 14.772C18.803 14.48 18.4497 14.2565 18.0608 14.1174C17.6719 13.9784 17.257 13.9273 16.846 13.9678C16.435 14.0084 16.0381 14.1395 15.6839 14.3519C15.3296 14.5642 15.0269 14.8525 14.7974 15.1959C14.5679 15.5393 14.4174 15.9293 14.3568 16.3378C14.2961 16.7463 14.3268 17.1632 14.4466 17.5585C14.5665 17.9537 14.7724 18.3175 15.0497 18.6236C15.327 18.9297 15.6686 19.1705 16.0502 19.3287ZM14.0763 13.704C14.4759 13.3043 14.9504 12.9873 15.4726 12.771C15.9948 12.5547 16.5545 12.4433 17.1197 12.4433C17.6849 12.4433 18.2446 12.5547 18.7668 12.771C19.289 12.9873 19.7635 13.3043 20.1631 13.704C20.5628 14.1036 20.8798 14.5781 21.0961 15.1003C21.3124 15.6225 21.4237 16.1822 21.4237 16.7474C21.4237 17.3126 21.3124 17.8723 21.0961 18.3945C20.8798 18.9167 20.5628 19.3911 20.1631 19.7908C19.356 20.598 18.2612 21.0514 17.1197 21.0514C15.9782 21.0514 14.8834 20.598 14.0763 19.7908C13.2691 18.9836 12.8156 17.8889 12.8156 16.7474C12.8156 15.6059 13.2691 14.5111 14.0763 13.704ZM22.3783 13.0843C22.4774 12.9909 22.5566 12.8785 22.6115 12.7539C22.6663 12.6293 22.6956 12.4949 22.6976 12.3588C22.6996 12.2227 22.6742 12.0875 22.623 11.9613C22.5719 11.8352 22.4959 11.7206 22.3996 11.6243C22.3033 11.528 22.1887 11.452 22.0625 11.4008C21.9364 11.3497 21.8012 11.3243 21.6651 11.3263C21.529 11.3283 21.3946 11.3576 21.27 11.4124C21.1454 11.4672 21.033 11.5465 20.9396 11.6456C20.7579 11.8382 20.6584 12.094 20.6623 12.3588C20.6661 12.6236 20.773 12.8764 20.9603 13.0636C21.1475 13.2509 21.4003 13.3578 21.6651 13.3616C21.9299 13.3655 22.1857 13.266 22.3783 13.0843Z" fill="white"/>
</svg>
