<svg width="34" height="34" viewBox="0 0 34 34" fill="none" xmlns="http://www.w3.org/2000/svg">
<path d="M17 0.30249C7.61104 0.30249 0 7.68968 0 16.8025C0 25.9153 7.61104 33.3025 17 33.3025C26.389 33.3025 34 25.9153 34 16.8025C34 7.68968 26.389 0.30249 17 0.30249ZM12.8385 23.6414H9.39604V12.8889H12.8385V23.6414ZM11.096 11.5689C10.0087 11.5689 9.30573 10.8212 9.30573 9.89655C9.30573 8.95296 10.03 8.22765 11.1403 8.22765C12.2506 8.22765 12.9306 8.95296 12.9519 9.89655C12.9519 10.8212 12.2506 11.5689 11.096 11.5689ZM25.4115 23.6414H21.969V17.6825C21.969 16.2955 21.4696 15.3536 20.2247 15.3536C19.2738 15.3536 18.7089 15.9912 18.4592 16.6048C18.3671 16.8231 18.3441 17.1325 18.3441 17.4401V23.6397H14.8998V16.3178C14.8998 14.9755 14.8555 13.8531 14.8095 12.8872H17.8004L17.958 14.3808H18.0271C18.4804 13.6795 19.5907 12.6448 21.4483 12.6448C23.7132 12.6448 25.4115 14.1178 25.4115 17.2837V23.6414Z" fill="#2F61AE"/>
</svg>
