<svg width="17" height="26" viewBox="0 0 17 26" fill="none" xmlns="http://www.w3.org/2000/svg">
<path d="M8.62836 25.0686C7.11871 23.6241 5.71939 22.0406 4.44504 20.3345C2.53267 17.7723 0.26172 13.9566 0.26172 10.3205C0.26089 8.46354 0.751178 6.64803 1.67054 5.10375C2.58989 3.55946 3.89699 2.35582 5.42641 1.64515C6.95583 0.934481 8.63882 0.748727 10.2624 1.1114C11.886 1.47407 13.3771 2.36886 14.5472 3.68254C15.3262 4.55248 15.9436 5.5871 16.3638 6.7265C16.784 7.86591 16.9985 9.08748 16.995 10.3205C16.995 13.9566 14.7241 17.7723 12.8117 20.3345C11.5373 22.0406 10.138 23.6241 8.62836 25.0686ZM8.62836 6.29831C7.67738 6.29831 6.76534 6.72208 6.09289 7.47639C5.42044 8.23069 5.04266 9.25376 5.04266 10.3205C5.04266 11.3873 5.42044 12.4103 6.09289 13.1646C6.76534 13.919 7.67738 14.3427 8.62836 14.3427C9.57935 14.3427 10.4914 13.919 11.1638 13.1646C11.8363 12.4103 12.2141 11.3873 12.2141 10.3205C12.2141 9.25376 11.8363 8.23069 11.1638 7.47639C10.4914 6.72208 9.57935 6.29831 8.62836 6.29831Z" fill="#11448A"/>
</svg>
