<svg width="19" height="23" viewBox="0 0 19 23" fill="none" xmlns="http://www.w3.org/2000/svg">
<path d="M10.1369 12.8012L1.46597 22.6287C1.6333 22.6977 1.80824 22.7408 1.99839 22.7408C2.33306 22.7408 2.68294 22.6287 3.04042 22.4046L13.0044 16.0598L10.1369 12.8012ZM0.606485 1.99943C0.538031 2.24081 0.5 2.50805 0.5 2.80116V20.7494C0.5 21.215 0.591273 21.6115 0.751 21.9305L9.46755 12.0512L0.606485 1.99943ZM13.8638 15.5167L17.1725 13.4046C17.819 12.9908 18.1765 12.4132 18.1765 11.7667C18.1765 11.1201 17.819 10.5425 17.1801 10.1287L14.1833 8.22357L10.8062 12.0425L13.8638 15.5081V15.5167ZM10.1369 11.2925L13.3238 7.68047L3.04042 1.12874C2.35588 0.714951 1.71697 0.654607 1.16173 1.1115L10.1445 11.2925H10.1369Z" fill="white"/>
</svg>
