<svg width="34" height="34" viewBox="0 0 34 34" fill="none" xmlns="http://www.w3.org/2000/svg">
<path d="M19.8386 16.5155L15.8614 14.7142C15.5143 14.5578 15.2292 14.7331 15.2292 15.1061V18.4989C15.2292 18.8719 15.5143 19.0472 15.8614 18.8908L19.8369 17.0895C20.1857 16.9314 20.1857 16.6736 19.8386 16.5155ZM17 0.30249C7.61104 0.30249 0 7.68968 0 16.8025C0 25.9153 7.61104 33.3025 17 33.3025C26.389 33.3025 34 25.9153 34 16.8025C34 7.68968 26.389 0.30249 17 0.30249ZM17 23.5056C8.29813 23.5056 8.14583 22.7442 8.14583 16.8025C8.14583 10.8608 8.29813 10.0994 17 10.0994C25.7019 10.0994 25.8542 10.8608 25.8542 16.8025C25.8542 22.7442 25.7019 23.5056 17 23.5056Z" fill="#2F61AE"/>
</svg>
